<svg xmlns="http://www.w3.org/2000/svg" xmlns:xlink="http://www.w3.org/1999/xlink" viewBox="0 0 67.35 59.97"><defs><style>.cls-1,.cls-16{fill:none;}.cls-2{clip-path:url(#clip-path);}.cls-3{fill:url(#linear-gradient);}.cls-4{opacity:0.18;}.cls-5{clip-path:url(#clip-path-2);}.cls-6{fill:#010101;}.cls-7{clip-path:url(#clip-path-3);}.cls-8{clip-path:url(#clip-path-4);}.cls-9{clip-path:url(#clip-path-5);}.cls-10{fill:#171717;}.cls-11{clip-path:url(#clip-path-6);}.cls-12{fill:#fff;}.cls-13{fill:#d71c53;}.cls-14{clip-path:url(#clip-path-7);}.cls-15{fill:url(#linear-gradient-2);}.cls-16{stroke:#010101;stroke-miterlimit:10;stroke-width:0.7px;}.cls-17{clip-path:url(#clip-path-8);}.cls-18{opacity:0.15;}.cls-19{clip-path:url(#clip-path-9);}.cls-20{opacity:0.05;}.cls-21{clip-path:url(#clip-path-10);}.cls-22{fill:#d46362;}.cls-23{opacity:0.1;}.cls-24{clip-path:url(#clip-path-11);}.cls-25{clip-path:url(#clip-path-12);}</style><clipPath id="clip-path"><path class="cls-1" d="M8.3,58.76l30.61-.11a1.69,1.69,0,0,0,1.28,0,1.27,1.27,0,0,0,.33-.24c1.63-1.56.79-7.69-.45-13.43s-2.89-11.11-2.89-11.11L10,33.53C1.93,60,8.3,58.76,8.3,58.76"/></clipPath><linearGradient id="linear-gradient" x1="-613.3" y1="148.57" x2="-612.3" y2="148.57" gradientTransform="translate(-4161.87 -17210.56) rotate(-90) scale(28.16)" gradientUnits="userSpaceOnUse"><stop offset="0" stop-color="#f06697"/><stop offset="0" stop-color="#ee598a"/><stop offset="0" stop-color="#ea3867"/><stop offset="0" stop-color="#e82351"/><stop offset="0" stop-color="#e22553"/><stop offset="0" stop-color="#d62858"/><stop offset="0" stop-color="#cf295b"/><stop offset="0" stop-color="#cd2a5c"/><stop offset="0" stop-color="#be2757"/><stop offset="0" stop-color="#9f204e"/><stop offset="0.64" stop-color="#d0285f"/><stop offset="0.99" stop-color="#e62c66"/><stop offset="1" stop-color="#e82351"/></linearGradient><clipPath id="clip-path-2"><rect class="cls-1" x="18.73" y="56.4" width="9.46" height="2.32"/></clipPath><clipPath id="clip-path-3"><rect class="cls-1" x="5.91" y="51.26" width="3.37" height="7.46"/></clipPath><clipPath id="clip-path-4"><rect class="cls-1" x="38.81" y="51.26" width="2.63" height="7.32"/></clipPath><clipPath id="clip-path-5"><rect class="cls-1" x="29.58" y="45.57" width="9.05" height="13.09"/></clipPath><clipPath id="clip-path-6"><rect class="cls-1" x="8.46" y="45.72" width="9.16" height="12.39"/></clipPath><clipPath id="clip-path-7"><path class="cls-1" d="M27.19,26.19l-.24.1-.12.08-3.3,2.27L20,26c-1.07-.36-4.8-.23-9,1.43a20,20,0,0,1-8.95,1s0,0,0,.05A45.67,45.67,0,0,0,10,33.53c.46.23.93.44,1.39.65a29.29,29.29,0,0,0,24.46.3c.47-.21.93-.42,1.37-.64A31.25,31.25,0,0,0,45,28.42s0,0,0,0a25.57,25.57,0,0,1-11.15-1.74,14.55,14.55,0,0,0-4.43-.82,6.22,6.22,0,0,0-2.25.37"/></clipPath><linearGradient id="linear-gradient-2" x1="-617.63" y1="143.5" x2="-616.63" y2="143.5" gradientTransform="translate(-26521.91 6204.59) rotate(180) scale(43.01)" gradientUnits="userSpaceOnUse"><stop offset="0" stop-color="#f06697"/><stop offset="0" stop-color="#f173a0"/><stop offset="0" stop-color="#f594b7"/><stop offset="0" stop-color="#facadb"/><stop offset="0" stop-color="#fff"/><stop offset="0.07" stop-color="#fff"/><stop offset="0.52" stop-color="#fff"/><stop offset="0.93" stop-color="#fff"/><stop offset="1" stop-color="#fff"/></linearGradient><clipPath id="clip-path-8"><rect class="cls-1" x="40.52" y="33.05" width="26.83" height="25.51"/></clipPath><clipPath id="clip-path-9"><rect class="cls-1" x="9.96" y="33.52" width="27.22" height="7.13"/></clipPath><clipPath id="clip-path-10"><rect class="cls-1" x="15.68" y="28.24" width="29.36" height="8.74"/></clipPath><clipPath id="clip-path-11"><rect class="cls-1" x="10.23" y="53.92" width="2.21" height="1.66"/></clipPath><clipPath id="clip-path-12"><rect class="cls-1" x="34.41" y="53.75" width="2.21" height="1.66"/></clipPath></defs><title>Img1</title><g id="Layer_2" data-name="Layer 2"><g id="Layer_1-2" data-name="Layer 1"><g class="cls-2"><rect class="cls-3" x="1.93" y="33.53" width="40.22" height="26.44"/></g><g class="cls-4"><g class="cls-5"><path class="cls-6" d="M28.2,56.47s-6,.92-9.47-.07l.33,2.17v.15l8.89,0Z"/></g></g><g class="cls-4"><g class="cls-7"><path class="cls-6" d="M9.28,54.88S6.37,53.81,6,51.26c0,0-.29,4.1.14,4.92,0,0,.38,2.15,1.61,2.51s1.42-3.75,1.42-3.75"/></g></g><g class="cls-4"><g class="cls-8"><path class="cls-6" d="M41.18,51.26S40.36,54.4,38.81,55L40,58.56s1.08.48,1.45-3.11a27,27,0,0,0-.26-4.19"/></g></g><g class="cls-4"><g class="cls-9"><path class="cls-6" d="M31.1,49.37a7.58,7.58,0,0,0,1.3-1l.05,0a10.13,10.13,0,0,0,.9-.72,4.79,4.79,0,0,0,.49-.52l.41-.35a5.91,5.91,0,0,0,.48-.52c.15-.14.55-.53.68-.68a5.21,5.21,0,0,1,1.21,1.58s2.8,9.41,1.78,10.56-8.19.93-8.19.93-1.34.47-.12-8.61a7.29,7.29,0,0,0,1-.66"/></g></g><path class="cls-10" d="M27.93,58.73c-.4-4.9,3-3.83,3-3.83,3.54-4,6.89,0,6.89,0,2.88-.33,2.52,3,2.41,3.8a.17.17,0,0,1-.17.15l-12,0a.17.17,0,0,1-.17-.17"/><g class="cls-4"><g class="cls-11"><path class="cls-6" d="M10.77,47.21a7.14,7.14,0,0,1,1.08-1.49,5,5,0,0,0,.91,1.14,5.22,5.22,0,0,0,.43.39l.07.07a8.32,8.32,0,0,0,.71.6c.14.16.29.32.45.47a6.51,6.51,0,0,0,1.2.93l.28.18a6.62,6.62,0,0,0,1.59,1.07c.18,2.91.26,6.67-.47,7.24-1.21.95-8.22-.58-8.22-.58s-1.56.24,2-10"/></g></g><path class="cls-10" d="M19.3,58.82c0-.56.17-4.31-2.82-4,0,0-3.36-4.07-6.89,0,0,0-3.18.21-1.85,4,0,0,0,.06.08.06h11.4a.08.08,0,0,0,.08-.07"/><path class="cls-12" d="M6.91,20.53a8.88,8.88,0,0,0-.61-6.24s-.21-.82,2.37.82a6.09,6.09,0,0,0-2-4.54,5.93,5.93,0,0,1,4.58.4A16.87,16.87,0,0,1,14,8C14.94,7.45,4.81.35.17.3.17.3-1.71,14,6.91,20.53"/><path class="cls-12" d="M40.54,10.6a5.6,5.6,0,0,0-2,4.35,2.92,2.92,0,0,1,2.37-.66,8.09,8.09,0,0,0-.67,6C49.7,12.7,46.7,0,46.7,0S37.64,2.4,33.59,8a16.3,16.3,0,0,1,2.1,3.12s2.58-1.84,4.85-.48"/><path class="cls-13" d="M2,28.39a20.58,20.58,0,0,0,9-.92c4.18-1.62,7.91-1.74,9-1.39,0,0-1.33-1.24,3.55-1.72,0,0,4.77.52,3.3,2.08l.12-.08a2.34,2.34,0,0,1,.24-.09c2.67-1,6.68.43,6.68.43A25.83,25.83,0,0,0,45,28.39a17.58,17.58,0,0,1-4.82-8.06,8.09,8.09,0,0,1,.67-6,2.92,2.92,0,0,0-2.37.66,5.6,5.6,0,0,1,2-4.35c-2.27-1.36-4.85.48-4.85.48A16.3,16.3,0,0,0,33.59,8C37.64,2.4,46.7,0,46.7,0,35.38-.36,30.08,3.86,29.45,4.16a.77.77,0,0,1-1-.1C21.48.58,20.31.34,20.6.52a22.34,22.34,0,0,1,2,2.45c.74.94-.29.4-.29.4-4.56-2.5-5.61-2.32-5.61-2.32,1.08.87,1.74,3.39,1.74,3.39C7.62-1.47.17.3.17.3,4.81.35,14.94,7.45,14,8a16.55,16.55,0,0,0-2.74,3,5.93,5.93,0,0,0-4.58-.4,6.09,6.09,0,0,1,2,4.54c-2.58-1.64-2.37-.82-2.37-.82a8.88,8.88,0,0,1,.61,6.24A17.84,17.84,0,0,1,2,28.39"/><g class="cls-14"><rect class="cls-15" x="2" y="25.64" width="43.04" height="13"/></g><path class="cls-12" d="M23.53,49.38c13-6.07,12.29-14.79,12.28-14.9a29.31,29.31,0,0,1-24.47-.3c-.42,9.87,12.19,15.2,12.19,15.2"/><line class="cls-16" x1="40.52" y1="58.38" x2="40.52" y2="58.38"/><path class="cls-13" d="M11.26,34.16h0c0,.1-1.26,8.79,11.4,15l.81.4h0c13-5.75,12.59-14.85,12.59-14.85l1.11-.5L39,41S24,66.44,8.14,40.56l2-6.92Z"/><path class="cls-12" d="M58.69,48.91c2.4-.09,3.86-2.76,3.86-2.76,2.3,2.29-3,9.85-3.1,10,14-6.38,5.14-23.05,5.14-23.05,1.39,6.5-4.72,5.93-6.74,5.57-4.65,4.26-1.57,10.37.84,10.29"/><path class="cls-13" d="M40.52,58.38C49.31,59,55.35,58,59.45,56.1h0c.07-.1,5.4-7.66,3.1-10,0,0-1.46,2.67-3.86,2.76s-5.49-6-.84-10.29c-.4-.07-.64-.13-.64-.13C43.91,35,40.07,45,40.07,45c1.24,5.74,2.07,11.87.45,13.43"/><g class="cls-4"><g class="cls-17"><path class="cls-6" d="M64.59,33.05S69.2,46.08,53.45,45c0,0-8.8-1.5-12.54,4.42,0,0,1.46,7.42-.39,9,0,0,14.37,1.4,21.37-3.64,0,0,10.22-5.07,2.7-21.69"/></g></g><g class="cls-18"><g class="cls-19"><path class="cls-6" d="M37.18,33.84S23,49.39,10,33.53a29.72,29.72,0,0,0,27.22.31"/></g></g><g class="cls-20"><g class="cls-21"><path class="cls-6" d="M40.07,28.24s-6.78,8.37-24.39,7.54c0,0,14.79,5.61,29.36-7.4a39.41,39.41,0,0,1-5-.14"/></g></g><path class="cls-10" d="M19.62,26l3.92,2.91,3.64-2.51C28.8,24.59,23.54,24,23.54,24c-5.38.56-3.92,2-3.92,2"/><path class="cls-10" d="M15.69,27.83a.15.15,0,0,0-.19.19A10,10,0,0,0,19,32.21c.33.22.66.46,1,.67a6.13,6.13,0,0,0,5.14.4l1-.4a7.42,7.42,0,0,0,4-3.29.13.13,0,0,0-.14-.18c-1.28.35-7,1.58-14.32-1.58"/><path class="cls-22" d="M19,32.21a11.39,11.39,0,0,0,1,.66,6.13,6.13,0,0,0,5.14.41c.32-.12.65-.25,1-.41-1.29-1.27-3.89-3-7.16-.66"/><path class="cls-12" d="M28.82,29.59,28.24,31a.17.17,0,0,1-.32,0l-.37-1.18"/><path class="cls-12" d="M17.58,28.38l.3,1.7a.19.19,0,0,0,.36.06l.68-1.2"/><g class="cls-23"><g class="cls-24"><path class="cls-12" d="M10.28,55.31c.18.33.8.36,1.38,0s.91-.83.73-1.17-.8-.36-1.38,0-.91.83-.73,1.17"/></g></g><g class="cls-23"><g class="cls-25"><path class="cls-12" d="M36.57,55.13c-.18.34-.8.37-1.38.06s-.91-.84-.73-1.17.8-.36,1.38-.06.91.84.73,1.17"/></g></g><path class="cls-10" d="M11.16,17.28A6.83,6.83,0,0,1,13.62,17a7.73,7.73,0,0,1,2.46.52,6.15,6.15,0,0,1,2.14,1.38A4.68,4.68,0,0,1,19.47,21a10.61,10.61,0,0,0-1.75-1.57,9.58,9.58,0,0,0-2-1.06,17.53,17.53,0,0,0-2.2-.67c-.76-.18-1.54-.32-2.36-.46"/><path class="cls-10" d="M14.9,20.33A2.89,2.89,0,0,1,16,19.74a3.48,3.48,0,0,1,1.29-.12,3.15,3.15,0,0,1,1.26.43,2.15,2.15,0,0,1,.85,1,8.21,8.21,0,0,0-1.11-.42,6.62,6.62,0,0,0-1.08-.2,10.42,10.42,0,0,0-1.13-.06l-1.22,0"/><path class="cls-10" d="M31.12,19.58c0,1.42-.82,2.58-1.83,2.58S27.47,21,27.47,19.58,28.28,17,29.29,17s1.83,1.16,1.83,2.59"/></g></g></svg>