<svg xmlns="http://www.w3.org/2000/svg" viewBox="0 0 64.38 64.42"><defs><style>.cls-1{fill:#fff;}</style></defs><title>QR</title><g id="Layer_2" data-name="Layer 2"><g id="Layer_1-2" data-name="Layer 1"><path class="cls-1" d="M17.56,29.31H11.71v2H10c-.11-.57-.21-1.15-.34-1.85H8c-.09.48-.2,1.07-.32,1.75H4V21.5H2V19.71l1.87-.32V17.6H0v-2H9.76c0,.73,0,1.34,0,2-.56,0-1.16,0-1.77,0v1.79H9.66c0-.67,0-1.27.05-1.83a13.89,13.89,0,0,1,2,0c.05.56.05,1.16.05,1.77h1.79V17.69c-.68,0-1.28,0-1.84,0,0-.59,0-1.13,0-1.89.91,0,1.83-.09,2.76-.11h3.09v-2h2V11.75h1.95V13.7h1.95v3.9H21.46v-2l-1.95.17V17.6h-1.9c-.11,1.85,0,3.72-.06,5.8h3.82v1.93H17.56Zm-5.85-3.9v-2h3.76V21.68H11.71v1.77h-2v2H6v1.69H9.76V25.41a16.17,16.17,0,0,1,2,.09v1.72h1.79V25.5a12.61,12.61,0,0,1-1.88-.09"/><path class="cls-1" d="M15.61,64.42V54.76h1.81c.08.52.17,1.11.28,1.78h1.67c.09-.54.18-1.14.29-1.87h9.6v3.77h1.86c.09-.7.17-1.28.24-1.82h1.81v1.81l1.95.34v1.75H33.17v1.95h-2v2Zm4-2h9.72c-.05-.68-.08-1.27-.12-2h-2V56.72H23.55c-.13.69-.24,1.28-.36,2H19.57Z"/><path class="cls-1" d="M64.38,13.7H50.83c-.24-4.47,0-9-.13-13.66H64.38ZM52.73,11.64h9.7c0-1.72,0-3.33,0-4.94a31.57,31.57,0,0,0-.09-4.59h-9.6Z"/><path class="cls-1" d="M0,50.77H13.66V64.42H0ZM2,62.36h9.71c0-1.71,0-3.32,0-4.93a31.67,31.67,0,0,0-.1-4.6H2Z"/><path class="cls-1" d="M0,0H13.54c.26,4.48,0,9,.14,13.66H0ZM11.65,2.1H2C2,3.82,1.92,5.42,2,7a33.34,33.34,0,0,0,.09,4.61h9.6Z"/><path class="cls-1" d="M39,64.42V58.57H41v1.78h3.9V58.57h3.9v2h-2c.07.81.12,1.39.17,1.95h1.82v2H42.92v-2l-2,.17v1.82Z"/><path class="cls-1" d="M3.9,37.11v3.78L2,41.1v7.72H0V35.16H1.76c.09.56.2,1.15.33,2Z"/><path class="cls-1" d="M56.58,64.42H50.72v-2H48.77V60.52h1.8c.15-.8.25-1.38.34-1.84h1.64c.12.69.22,1.28.34,2h1.62c.11.7.21,1.28.3,1.84h1.77Z"/><path class="cls-1" d="M64.38,43H62.63l-.34,1.95H60.48v-1.8l-1.95-.34V41h1.95V39.06h1.81c.14.8.24,1.39.34,1.95h1.75Z"/><path class="cls-1" d="M64.38,33.21v1.95h-1.8c-.14.8-.25,1.39-.34,2H60.48V31.26h1.81c.14.8.24,1.39.34,1.95Z"/><path class="cls-1" d="M64.38,19.55H60.66V15.77h1.6c.08.44.18,1,.31,1.83h1.81Z"/><rect class="cls-1" y="21.5" width="1.95" height="5.85"/><path class="cls-1" d="M64.38,27.36H62.63c-.1.56-.2,1.14-.34,1.95H60.48v-3.9h3.9Z"/><rect class="cls-1" x="62.43" y="46.87" width="1.95" height="3.9"/><rect class="cls-1" y="29.31" width="1.78" height="3.9"/><rect class="cls-1" x="33.17" y="62.47" width="1.95" height="1.95"/><rect class="cls-1" x="60.48" y="62.47" width="1.95" height="1.95"/><path class="cls-1" d="M31.21,19.55V17.6h2v-2c.65,0,1.3,0,2,0,.05.55.05,1.16.05,1.76H37V15.74c-.67,0-1.28,0-1.84,0,0-1-.06-1.95,0-2.9s.07-2,.11-3h1.84v3.84h2V9.8H41v3.84h2V9.8h1.95v5.85H38.93v4H37c.06.71.1,1.29.14,1.74h3.67c.12-.69.21-1.28.31-1.84h3.71v5.74l1.84.2v1.7l-1.84.31v1.81H42.92v2H39.1c-.07-1.45-.13-2.69-.19-3.9H37.07c-.09-1.31.2-2.65-.19-3.91H35.12v-3.9Zm7.92,5.69h3.68V23.51H39.13Z"/><path class="cls-1" d="M31.22,17.6H27.4c0,.67-.09,1.17-.15,1.81H23.41V17.6h1.8l.32-1.88,3.74-.19c0-.78,0-1.3,0-1.88.56,0,1.16,0,1.77,0V11.82H29.36c0,.67,0,1.28-.05,1.83-.66,0-1.27,0-1.85,0l-.32-1.84H25.48c-.11.69-.21,1.28-.3,1.84H23.41V11.75H21.46V9.92l3.77-.2V7.91l-1.68-.12V3.94h1.81V5.72h3.91V2h1.79c.08-.55.16-1.13.26-1.83H39V2H33.31c-.11.74-.19,1.32-.28,1.88l-1.81.18V7.89c-1.26,0-2.51,0-3.77,0V9.62h3.77V7.89c.65,0,1.3,0,2,0v7.8h-2Z"/><path class="cls-1" d="M44.87,29.31h1.81c.07.55.15,1.12.24,1.82h1.77c.05-.55.09-1.05.15-1.69h3.84v1.82h-2v1.95h-2v1.95H45c-.11-.73-.19-1.32-.27-1.85l-1.83-.25v-1.8h1.95Z"/><path class="cls-1" d="M46.82,9.8h1.9c.12,1.83,0,3.69.07,5.66l1.93.35V17.6c-1.3.09-2.64-.2-3.9.19v1.76h-2v-3.9h2Z"/><path class="cls-1" d="M17.56,13.7H15.77V9.89h1.69c0-.69.08-1.27.12-1.95l-1.84-.16V6h5.59V7.68L19.51,8v3.77h-2Z"/><path class="cls-1" d="M50.72,17.6h1.81c.07-.54.15-1.12.24-1.82h1.86v3.77H52.79c-.06,1.22-.12,2.45-.2,3.9H50.72V21.62l-3.9-.2V19.55h3.9Z"/><path class="cls-1" d="M52.68,31.26h1.83c.06-1.19.12-2.4.19-3.74l1.88-.32V25.4h1.76c.39,1.26.1,2.6.19,3.91h-2v3.9h-3.9Z"/><path class="cls-1" d="M44.87,3.94h1.81c.07.55.15,1.12.24,1.83L48.69,6V7.69L46.82,8V9.8h-2v-2H42.92V5.9h1.95Z"/><rect class="cls-1" x="19.62" y="0.1" width="1.73" height="3.79"/><rect class="cls-1" x="58.53" y="29.31" width="1.95" height="1.95"/><rect class="cls-1" x="50.82" y="25.5" width="1.79" height="1.72"/><rect class="cls-1" x="54.7" y="23.59" width="1.79" height="1.72"/><path class="cls-1" d="M50.72,25.41H48.9l-.17-2h2Z"/><path class="cls-1" d="M58.59,23.35V21.61h1.78c0,.46.08,1,.14,1.74Z"/><rect class="cls-1" x="54.72" y="19.64" width="1.79" height="1.72"/><path class="cls-1" d="M58.48,15.76v1.73H56.69c0-.45-.09-1-.15-1.73Z"/><rect class="cls-1" x="40.97" y="3.94" width="1.95" height="1.95"/><rect class="cls-1" x="42.92" y="1.99" width="1.95" height="1.95"/><rect class="cls-1" x="39.02" y="1.99" width="1.95" height="1.95"/><rect class="cls-1" x="25.36" y="1.99" width="1.95" height="1.95"/><path class="cls-1" d="M15.78,2h1.65c.05.56.1,1.14.16,1.84H15.78Z"/><rect class="cls-1" x="44.96" y="0.11" width="1.72" height="1.79"/><path class="cls-1" d="M27.31,2V.17l2-.17V2Z"/><rect class="cls-1" x="23.48" y="0.18" width="1.79" height="1.72"/><path class="cls-1" d="M33.17,46.87H31.42L31.07,45H23.48c0,.52-.05,1.11-.08,1.82h5.74v1.81L27.41,49v1.62l-2,.35c-.05.51-.1,1-.16,1.67H23.55c-.07-1.08-.14-2.31-.23-3.77H17.56v-2h3.93c0-.79-.09-1.38-.14-2h-1.7c-.13-.7-.24-1.29-.36-2h-1.6c-.12-.7-.23-1.28-.31-1.74H15.73c-.12.7-.21,1.28-.31,1.84H13.66V41l-1.95.17V43h-2V41h-2V39.22L6,39l-.29-1.85H3.9V35.35c1.26-.39,2.6-.1,3.9-.19V37l1.84.25c.07.55.16,1.14.25,1.79h5.54c.09-.52.19-1.1.33-1.89.58,0,1.19,0,1.84,0,0,.56,0,1.16,0,1.77h1.79V37.2c-.67,0-1.28,0-1.84,0,0-.57,0-1.1,0-1.84l1.81-.26.29-1.85h1.8v9.64H25.4c-.07-.71-.12-1.28-.19-2H23.59V37.11h1.77v2h2c0,1.26,0,2.51,0,3.78h3.75v-1.7l-1.79-.25c-.09-.7-.17-1.28-.25-1.83H27.36c-.05-.59-.05-1.19-.05-2H25.36v-2h5.9V39l3.86.21V41H33.17Z"/><path class="cls-1" d="M21.46,33.21V27.48l3.79-.21V25.59l-1.74-.33V21.59l1.77-.11c0,.67.09,1.18.14,1.83h1.79c.06-.54.12-1,.19-1.68l1.77-.26c.06-.58.12-1.09.2-1.82h1.85v1.81l2,.34v1.75H29.42c-.14.8-.25,1.38-.38,2.06H27.28l.15,1.74h3.66l.32-1.85h1.76v5.86h-3.9v-2c-2.11,0-4-.07-5.86.07v3.84Z"/><rect class="cls-1" x="19.51" y="17.6" width="1.95" height="3.85"/><rect class="cls-1" x="7.9" y="33.28" width="1.72" height="1.79"/><path class="cls-1" d="M13.66,35.16V33.21h1.82c0,.56.1,1.14.17,1.95Z"/><rect class="cls-1" x="11.71" y="31.26" width="1.95" height="1.95"/><rect class="cls-1" x="11.84" y="35.25" width="1.72" height="1.79"/><rect class="cls-1" x="17.65" y="29.4" width="1.79" height="1.72"/><path class="cls-1" d="M15.61,48.82H7.9V47.05l1.85-.34V44.92h2v1.95h3.9Z"/><path class="cls-1" d="M17.56,48.82v1.75l1.84.33v1.66H15.61V48.82Z"/><path class="cls-1" d="M31.22,50.77v1.75l2,.34v1.81h-3.9v-3.9Z"/><rect class="cls-1" x="4.04" y="43.06" width="1.73" height="3.73"/><rect class="cls-1" x="5.85" y="41.01" width="1.95" height="1.95"/><rect class="cls-1" x="7.8" y="42.96" width="1.95" height="1.95"/><rect class="cls-1" x="33.17" y="46.87" width="1.95" height="1.95"/><rect class="cls-1" x="31.22" y="48.82" width="1.95" height="1.95"/><path class="cls-1" d="M60.48,62.47h-3.9V58.73l-2.07-.38V56.51h-7.8V54.73H44.87v3.84H41v-1.8l1.87-.31V54.67H39V50.89l-3.9-.21V48.82h2c-.07-.81-.12-1.39-.17-2H35.12v-2H39v3.75l2.06.38v1.74c2-.05,3.88,0,5.63-.06V48.93l-1.84-.29V44.91c.65,0,1.3,0,2,.05.05.56.05,1.17.05,1.77H48.7V45c-.66,0-1.27,0-1.83,0,0-.64,0-1.24,0-2h-2v-1.8l-2.06-.36V39.17l-2-.3V37.2l-1.7-.2-.28-1.87h-5.7V31.26H35c.07-1.45.13-2.69.19-3.9h1.84V33.3h4V35l2,.36V37l3.91.19V39h1.83V35.16h2V33.21h2V35h3.9V33.21h1.87c.07,1.45.13,2.69.19,3.9h1.84v2H58.53V41H52.68c0-.65,0-1.3,0-2,.56-.05,1.16-.05,1.77-.05V37.18H52.77c0,.67,0,1.28-.05,1.84-.64,0-1.24,0-2,0,0,.76,0,1.36,0,2-.57,0-1.16,0-1.77,0v1.79h1.72c0-.66,0-1.27,0-1.83.7-.05,1.35-.05,2-.05v1.8l1.85.33V45H50.81v1.88h5.77v3.9h5.85v5.85c-.73,0-1.34,0-2,0,0-.57,0-1.18,0-1.77H56.66v1.73c1.32,0,2.57,0,3.77,0,0,.69,0,1.34,0,2h-2c.07.81.12,1.39.17,2h1.82ZM48.89,48.87v5.81c2,0,3.88.06,5.63-.07V48.87Z"/><rect class="cls-1" x="37.24" y="54.67" width="1.78" height="3.9"/><path class="cls-1" d="M33.17,56.62V54.67H35c0,.56.1,1.14.17,1.95Z"/><path class="cls-1" d="M35.12,62.47V60.52h1.82c.05.56.1,1.14.17,1.95Z"/><path class="cls-1" d="M60.48,58.57H62.3c.05.56.1,1.15.17,2h-2Z"/><rect class="cls-1" x="56.58" y="44.92" width="3.9" height="1.95"/><path class="cls-1" d="M60.49,9.8H54.7c-.15-1.86,0-3.75-.08-5.74h5.8c.14,1.83,0,3.79.07,5.74"/><path class="cls-1" d="M4,60.41V54.78H9.7c.13,1.75,0,3.64.06,5.63Z"/><path class="cls-1" d="M9.65,9.74H4V4c1.76-.13,3.64,0,5.64-.06Z"/><rect class="cls-1" x="37.07" y="7.85" width="1.95" height="1.95"/><rect class="cls-1" x="39.02" y="5.9" width="1.95" height="1.95"/><rect class="cls-1" x="33.26" y="5.97" width="1.72" height="1.79"/><rect class="cls-1" x="33.17" y="23.45" width="1.95" height="1.95"/><rect class="cls-1" x="40.97" y="7.85" width="1.95" height="1.95"/><path class="cls-1" d="M41,44.91H39V43.08l-3.9-.2V41h1.8c.07-.55.15-1.12.24-1.82h1.77c0,.55.1,1.05.16,1.68l1.88.29Z"/><path class="cls-1" d="M25.36,33.21V31.45c1.26-.39,2.6-.1,3.9-.19V33c-1.25.39-2.59.1-3.9.19"/><rect class="cls-1" x="23.41" y="33.21" width="1.95" height="1.95"/><rect class="cls-1" x="42.92" y="42.96" width="1.95" height="1.95"/><path class="cls-1" d="M42.92,44.91v1.83l-2,.17v-2Z"/><rect class="cls-1" x="11.71" y="42.96" width="1.95" height="1.95"/><path class="cls-1" d="M17.56,46.87H15.61V45l1.95-.17Z"/><path class="cls-1" d="M50.84,50.82h1.73V52.6l-1.73.15Z"/></g></g></svg>