<svg xmlns="http://www.w3.org/2000/svg" viewBox="0 0 93.86 24.02"><defs><style>.cls-1{fill:#fff;}</style></defs><title>logo</title><g id="Layer_2" data-name="Layer 2"><g id="Layer_1-2" data-name="Layer 1"><path class="cls-1" d="M11,6.22a1.66,1.66,0,0,0,.24.88,1.7,1.7,0,0,0,.62.63A1.8,1.8,0,0,0,12.7,8a1.74,1.74,0,0,0,.88-.25,1.66,1.66,0,0,0,.63-.63,1.77,1.77,0,0,0,.25-.88,1.8,1.8,0,0,0-.25-.89,1.72,1.72,0,0,0-1.51-.86,1.69,1.69,0,0,0-1.51.86,1.7,1.7,0,0,0-.24.89"/><path class="cls-1" d="M6.07,13a4,4,0,0,0,1.2-.51,3.88,3.88,0,0,0,1-.89,3.8,3.8,0,0,0,.65-1.23,4.76,4.76,0,0,0,.24-1.55A4.51,4.51,0,0,0,8.79,7a4,4,0,0,0-.9-1.35,4,4,0,0,0-1.3-.89A4.17,4.17,0,0,0,5,4.47H0V17.88H3V13.09H3l3.19,4.79H9.92Zm-.89-2.32a1.79,1.79,0,0,1-.65.13H3v-4H4.53a1.61,1.61,0,0,1,.65.13,1.81,1.81,0,0,1,.57.39,2.09,2.09,0,0,1,.41.62,2.19,2.19,0,0,1,.15.83,2.26,2.26,0,0,1-.15.85,1.86,1.86,0,0,1-.41.62,1.81,1.81,0,0,1-.57.39"/><rect class="cls-1" x="11.18" y="8.94" width="3.04" height="8.94"/><path class="cls-1" d="M23.66,8.94v1.24a3.59,3.59,0,0,0-.89-.75,3,3,0,0,0-1-.38,4.1,4.1,0,0,0-1.06-.11,4,4,0,0,0-1.68.36,4.18,4.18,0,0,0-1.34,1,4.5,4.5,0,0,0-.89,1.41,4.63,4.63,0,0,0-.32,1.7,4.63,4.63,0,0,0,1.21,3.12,4.33,4.33,0,0,0,1.34,1,4.12,4.12,0,0,0,1.68.37,4.67,4.67,0,0,0,1.11-.13,3.35,3.35,0,0,0,1-.4,2.32,2.32,0,0,0,.78-.71v1.2a2.47,2.47,0,0,1-.17.89,2.35,2.35,0,0,1-.45.76,2.12,2.12,0,0,1-.69.53,2.06,2.06,0,0,1-1.75,0,1.87,1.87,0,0,1-.67-.55,2.06,2.06,0,0,1-.39-.86H16.63A3.79,3.79,0,0,0,17,20a3.66,3.66,0,0,0,.8,1.06,4.51,4.51,0,0,0,1.12.73,5.93,5.93,0,0,0,1.33.44,7.28,7.28,0,0,0,1.39.14A5.09,5.09,0,0,0,23.54,22a4.91,4.91,0,0,0,1.57-1,4.76,4.76,0,0,0,1.06-1.54,5.09,5.09,0,0,0,.39-1.94V8.94ZM23.5,14.2a2.2,2.2,0,0,1-.42.69,2.16,2.16,0,0,1-.65.47,2,2,0,0,1-1.61,0,2.16,2.16,0,0,1-.65-.47,2.2,2.2,0,0,1-.42-2.31,2.27,2.27,0,0,1,.42-.68,2.35,2.35,0,0,1,.65-.47,2,2,0,0,1,1.61,0,2.35,2.35,0,0,1,.65.47,2.27,2.27,0,0,1,.42.68,2.13,2.13,0,0,1,0,1.62"/><path class="cls-1" d="M37.84,12.94a5.79,5.79,0,0,0-.33-2.1,2.86,2.86,0,0,0-1.07-1.4,3.69,3.69,0,0,0-3-.34,2.9,2.9,0,0,0-.9.44,3,3,0,0,0-.71.67V4.47h-3V17.92l3,0V13.54a2.73,2.73,0,0,1,.22-1.1,2,2,0,0,1,.6-.79,1.39,1.39,0,0,1,.85-.31,1.23,1.23,0,0,1,1,.41,1.92,1.92,0,0,1,.32,1.19v4.94h3Z"/><polygon class="cls-1" points="44.08 11.25 45.67 11.25 45.67 8.94 44.08 8.94 44.08 5.59 41.11 5.59 41.11 8.94 39.51 8.94 39.51 11.25 41.11 11.25 41.11 17.88 44.08 17.88 44.08 11.25"/><path class="cls-1" d="M56.63,12.94a5.85,5.85,0,0,0-.34-2.1,2.78,2.78,0,0,0-1.07-1.39,3.33,3.33,0,0,0-1.9-.51,3.81,3.81,0,0,0-1.08.16,3.47,3.47,0,0,0-1.61,1.11V8.94h-3v8.94h3V13.54a2.64,2.64,0,0,1,.23-1.1,2,2,0,0,1,.59-.79,1.42,1.42,0,0,1,.85-.3,1.21,1.21,0,0,1,1,.41,1.82,1.82,0,0,1,.32,1.18v4.94h3Z"/><polygon class="cls-1" points="84.92 8.94 81.46 8.94 79.73 14.78 77.7 8.94 75.14 8.94 73.34 14.78 71.52 8.94 68.28 8.94 71.36 17.88 74.85 17.88 76.57 12.3 78.32 17.88 81.46 17.88 84.92 8.94"/><path class="cls-1" d="M67.27,11.58a4.17,4.17,0,0,0-1-1.41,4.85,4.85,0,0,0-1.56-.91,5.6,5.6,0,0,0-1.89-.32,5.66,5.66,0,0,0-1.9.32,4.85,4.85,0,0,0-1.56.91,4.33,4.33,0,0,0-1.06,1.41,4.61,4.61,0,0,0,0,3.69,4.07,4.07,0,0,0,1,1.41,4.61,4.61,0,0,0,1.56.89,6.1,6.1,0,0,0,3.84,0,4.76,4.76,0,0,0,1.55-.89,4.17,4.17,0,0,0,1-1.41,4.37,4.37,0,0,0,.38-1.85,4.24,4.24,0,0,0-.39-1.84m-2.6,2.67a2.33,2.33,0,0,1-.32.72,1.62,1.62,0,0,1-.61.51,2.29,2.29,0,0,1-1,.2,2.34,2.34,0,0,1-1-.2,1.62,1.62,0,0,1-.61-.51,1.94,1.94,0,0,1-.32-.72,2.8,2.8,0,0,1-.09-.81,2.66,2.66,0,0,1,.09-.8,2.36,2.36,0,0,1,.33-.72,1.65,1.65,0,0,1,.62-.51,2.28,2.28,0,0,1,1-.19,2.2,2.2,0,0,1,.95.19,1.74,1.74,0,0,1,.62.51,2.33,2.33,0,0,1,.32.72,3,3,0,0,1,.1.8,3.72,3.72,0,0,1-.09.81"/><path class="cls-1" d="M53.64,23.36a.63.63,0,0,0,.09.33.69.69,0,0,0,.24.24.69.69,0,0,0,.68,0,.69.69,0,0,0,.24-.24.61.61,0,0,0,0-.67.62.62,0,0,0-.24-.24.63.63,0,0,0-.68,0,.62.62,0,0,0-.24.24.64.64,0,0,0-.09.34"/><path class="cls-1" d="M57.33,21.52a.69.69,0,0,1,.45.14A.49.49,0,0,1,58,22H59a1.34,1.34,0,0,0-.14-.52,1.51,1.51,0,0,0-.36-.44,1.74,1.74,0,0,0-.54-.29,2.25,2.25,0,0,0-.71-.11,1.9,1.9,0,0,0-.73.14,1.5,1.5,0,0,0-.56.36,1.47,1.47,0,0,0-.36.53,1.57,1.57,0,0,0-.13.65,1.75,1.75,0,0,0,.12.65,1.58,1.58,0,0,0,.35.53,1.63,1.63,0,0,0,.56.36,2,2,0,0,0,.75.13,2.31,2.31,0,0,0,.67-.09,2,2,0,0,0,.52-.27,1.5,1.5,0,0,0,.36-.4,1.31,1.31,0,0,0,.18-.5H58a.44.44,0,0,1-.1.24.61.61,0,0,1-.23.15.94.94,0,0,1-.3.05.75.75,0,0,1-.32-.08.64.64,0,0,1-.2-.2,1.53,1.53,0,0,1-.11-.27,1.5,1.5,0,0,1,0-.29.9.9,0,0,1,0-.28,1,1,0,0,1,.11-.28.55.55,0,0,1,.2-.2.57.57,0,0,1,.31-.08"/><path class="cls-1" d="M63,21.66a1.55,1.55,0,0,0-.39-.53,2,2,0,0,0-1.29-.46,2.09,2.09,0,0,0-.72.12,2,2,0,0,0-.58.34,1.6,1.6,0,0,0-.55,1.22,1.75,1.75,0,0,0,.15.7,1.43,1.43,0,0,0,.39.52,1.77,1.77,0,0,0,.58.34,2.48,2.48,0,0,0,.73.11,2.35,2.35,0,0,0,.71-.11,1.82,1.82,0,0,0,.59-.34,1.69,1.69,0,0,0,.39-.52,1.75,1.75,0,0,0,.14-.7,1.58,1.58,0,0,0-.15-.69m-1,1a1.11,1.11,0,0,1-.12.27.64.64,0,0,1-.23.2,1,1,0,0,1-.36.07,1,1,0,0,1-.37-.07.57.57,0,0,1-.23-.2.66.66,0,0,1-.12-.27,1.15,1.15,0,0,1,0-.6.83.83,0,0,1,.12-.27A.71.71,0,0,1,61,21.6a.82.82,0,0,1,.37-.07.73.73,0,0,1,.35.07.62.62,0,0,1,.23.19.66.66,0,0,1,.12.27,1,1,0,0,1,0,.3,1.53,1.53,0,0,1,0,.3"/><path class="cls-1" d="M66.79,22.36a1.33,1.33,0,0,1,0-.28,1,1,0,0,1,.11-.25.58.58,0,0,1,.19-.19.54.54,0,0,1,.27-.07.38.38,0,0,1,.29.1.51.51,0,0,1,.15.23,1.06,1.06,0,0,1,0,.31V24H69V22.21a2.35,2.35,0,0,0-.07-.6,1.6,1.6,0,0,0-.24-.49,1,1,0,0,0-.39-.33,1.25,1.25,0,0,0-.56-.12,1.73,1.73,0,0,0-.47.06,1.13,1.13,0,0,0-.39.17,1.75,1.75,0,0,0-.34.33,1,1,0,0,0-.44-.42,1.21,1.21,0,0,0-.58-.14,1,1,0,0,0-.34.06,1.34,1.34,0,0,0-.31.17,1.18,1.18,0,0,0-.25.25v-.48H63.48V24H64.6V22.39a.93.93,0,0,1,0-.27.88.88,0,0,1,.12-.26.64.64,0,0,1,.19-.21.41.41,0,0,1,.25-.08.39.39,0,0,1,.29.1.51.51,0,0,1,.15.23,1.55,1.55,0,0,1,0,.31V24h1.11Z"/><path class="cls-1" d="M69.91,23.36a.63.63,0,0,0,.09.33.69.69,0,0,0,.24.24.67.67,0,0,0,.34.09.64.64,0,0,0,.34-.09.69.69,0,0,0,.24-.24.64.64,0,0,0,.1-.33.65.65,0,0,0-.1-.34.62.62,0,0,0-.24-.24.57.57,0,0,0-.34-.1.59.59,0,0,0-.34.1A.62.62,0,0,0,70,23a.64.64,0,0,0-.09.34"/><path class="cls-1" d="M79,22.17a2.33,2.33,0,0,0-.13-.79,1,1,0,0,0-.4-.52,1.27,1.27,0,0,0-.71-.19,1.29,1.29,0,0,0-.4.06,1.35,1.35,0,0,0-.34.17,1,1,0,0,0-.26.25v-.48H75.6V24h1.12V22.39A1.07,1.07,0,0,1,76.8,22a.86.86,0,0,1,.23-.3.51.51,0,0,1,.31-.11.45.45,0,0,1,.38.15.71.71,0,0,1,.12.45V24H79Z"/><polygon class="cls-1" points="73.99 20.67 73.2 23.21 72.33 20.67 71.26 20.67 72.41 24.02 74.04 24.02 75.08 20.67 73.99 20.67"/><path class="cls-1" d="M83.57,3.43H81.49V0L74.68,3.72,81.49,8V4.54h2.08a9.19,9.19,0,0,1,0,18.37H81.46V24h2.11a10.3,10.3,0,0,0,0-20.59M80.39,6,76.78,3.83l3.61-2Z"/></g></g></svg>